<?xml version="1.0" encoding="UTF-8"?>
<svg id="_レイヤー_2" data-name="レイヤー 2" xmlns="http://www.w3.org/2000/svg" viewBox="0 0 1697.1 219.73">
  <defs>
    <style>
      .cls-1 {
        stroke-width: 1.66px;
      }

      .cls-1, .cls-2, .cls-3, .cls-4 {
        fill: #fff;
        stroke: #fff;
        stroke-miterlimit: 10;
      }

      .cls-2 {
        stroke-width: 1.71px;
      }

      .cls-3 {
        stroke-width: .55px;
      }

      .cls-4 {
        stroke-width: .53px;
      }
    </style>
  </defs>
  <g id="_レイヤー_1-2" data-name="レイヤー 1">
    <g>
      <g>
        <polygon class="cls-4" points="1547.38 218.87 1547.02 70.43 1626.71 70.36 1627.06 218.8 1547.38 218.87"/>
        <polygon class="cls-1" points="1587.04 1.08 1694.8 90.35 1479.29 90.35 1587.04 1.08"/>
      </g>
      <rect class="cls-2" x="67.63" y="140.5" width="1558.13" height="78.37"/>
      <g>
        <path d="M741.2,201.73v-42.98h14.21c2.94,0,5.58.33,7.92.99,2.34.66,4.2,1.76,5.57,3.31,1.37,1.55,2.06,3.65,2.06,6.32,0,1.32-.24,2.6-.73,3.86-.48,1.26-1.15,2.37-2,3.33-.85.97-1.9,1.68-3.13,2.15v.23c2.32.54,4.23,1.65,5.74,3.33,1.51,1.68,2.26,3.95,2.26,6.81s-.73,5.23-2.18,7.11c-1.45,1.88-3.42,3.27-5.92,4.18-2.49.91-5.33,1.36-8.5,1.36h-15.31ZM749.79,176.27h5.05c2.71,0,4.68-.51,5.92-1.54,1.24-1.02,1.86-2.39,1.86-4.09,0-1.89-.64-3.25-1.91-4.06-1.28-.81-3.21-1.22-5.8-1.22h-5.1v10.9ZM749.79,195.12h5.97c2.94,0,5.17-.53,6.7-1.59,1.53-1.06,2.29-2.72,2.29-4.96,0-2.09-.76-3.61-2.29-4.55-1.53-.95-3.76-1.42-6.7-1.42h-5.97v12.53Z"/>
        <path d="M789.69,202.54c-3.52,0-6.07-1.15-7.66-3.45-1.59-2.3-2.38-5.5-2.38-9.6v-20.24h8.47v19.2c0,2.51.37,4.27,1.1,5.28.73,1.01,1.91,1.51,3.54,1.51,1.31,0,2.47-.32,3.45-.96s2.02-1.67,3.1-3.1v-21.92h8.53v32.48h-6.96l-.64-4.7h-.23c-1.39,1.66-2.9,3-4.52,4s-3.56,1.51-5.8,1.51Z"/>
        <path d="M826.23,202.54c-2.17,0-4.36-.43-6.58-1.28-2.22-.85-4.15-1.93-5.77-3.25l3.89-5.39c1.43,1.08,2.85,1.94,4.26,2.58,1.41.64,2.89.96,4.44.96,1.62,0,2.81-.32,3.57-.96s1.13-1.46,1.13-2.46c0-.81-.33-1.5-.99-2.06-.66-.56-1.51-1.06-2.55-1.51-1.04-.44-2.13-.88-3.25-1.3-1.35-.54-2.7-1.2-4.03-1.97s-2.45-1.77-3.33-2.99c-.89-1.22-1.33-2.74-1.33-4.55,0-1.93.5-3.64,1.51-5.13,1-1.49,2.41-2.66,4.21-3.51,1.8-.85,3.93-1.28,6.41-1.28s4.46.41,6.29,1.22c1.84.81,3.41,1.74,4.73,2.78l-3.83,5.16c-1.16-.85-2.31-1.53-3.45-2.03-1.14-.5-2.31-.75-3.51-.75-1.51,0-2.61.29-3.31.87s-1.04,1.33-1.04,2.26c0,.77.29,1.42.87,1.94.58.52,1.37.98,2.38,1.36,1,.39,2.07.79,3.19,1.22,1.08.39,2.15.84,3.22,1.36,1.06.52,2.04,1.15,2.93,1.89.89.73,1.6,1.63,2.12,2.7.52,1.06.78,2.35.78,3.86,0,1.89-.49,3.62-1.48,5.19-.99,1.57-2.44,2.8-4.35,3.71-1.91.91-4.28,1.36-7.1,1.36Z"/>
        <path d="M849.95,163.97c-1.51,0-2.71-.42-3.6-1.25-.89-.83-1.33-1.96-1.33-3.39s.44-2.51,1.33-3.36c.89-.85,2.09-1.28,3.6-1.28s2.61.43,3.54,1.28c.93.85,1.39,1.97,1.39,3.36s-.46,2.56-1.39,3.39c-.93.83-2.11,1.25-3.54,1.25ZM845.66,201.73v-32.48h8.53v32.48h-8.53Z"/>
        <path d="M863.29,201.73v-32.48h6.96l.64,4.29h.17c1.43-1.39,3-2.59,4.7-3.6,1.7-1,3.65-1.51,5.86-1.51,3.52,0,6.07,1.15,7.66,3.45,1.58,2.3,2.38,5.5,2.38,9.6v20.24h-8.53v-19.2c0-2.51-.36-4.27-1.07-5.28-.72-1-1.88-1.51-3.51-1.51-1.32,0-2.46.31-3.45.93-.99.62-2.08,1.53-3.28,2.73v22.33h-8.53Z"/>
        <path d="M914.62,202.54c-3.02,0-5.74-.68-8.18-2.03-2.44-1.35-4.38-3.31-5.83-5.86-1.45-2.55-2.18-5.61-2.18-9.16,0-2.63.42-4.99,1.25-7.08s1.97-3.88,3.42-5.37c1.45-1.49,3.07-2.63,4.87-3.42,1.8-.79,3.66-1.19,5.6-1.19,2.98,0,5.47.67,7.48,2s3.53,3.17,4.55,5.51c1.02,2.34,1.54,5.02,1.54,8.03,0,.77-.04,1.52-.12,2.23-.08.72-.17,1.29-.29,1.71h-20.01c.23,1.74.75,3.21,1.57,4.41.81,1.2,1.86,2.1,3.13,2.7,1.28.6,2.73.9,4.35.9,1.31,0,2.55-.18,3.71-.55,1.16-.37,2.34-.92,3.54-1.65l2.9,5.22c-1.59,1.08-3.36,1.95-5.34,2.61-1.97.66-3.96.99-5.97.99ZM906.56,182.18h13.28c0-2.17-.49-3.9-1.48-5.19-.99-1.29-2.54-1.94-4.67-1.94-1.12,0-2.19.26-3.19.78-1.01.52-1.86,1.32-2.55,2.38-.7,1.06-1.16,2.39-1.39,3.97Z"/>
        <path d="M943.45,202.54c-2.17,0-4.36-.43-6.58-1.28-2.22-.85-4.15-1.93-5.77-3.25l3.89-5.39c1.43,1.08,2.85,1.94,4.26,2.58,1.41.64,2.89.96,4.44.96,1.62,0,2.81-.32,3.57-.96s1.13-1.46,1.13-2.46c0-.81-.33-1.5-.99-2.06-.66-.56-1.51-1.06-2.55-1.51-1.04-.44-2.13-.88-3.25-1.3-1.35-.54-2.7-1.2-4.03-1.97s-2.45-1.77-3.33-2.99c-.89-1.22-1.33-2.74-1.33-4.55,0-1.93.5-3.64,1.51-5.13,1-1.49,2.41-2.66,4.21-3.51,1.8-.85,3.93-1.28,6.41-1.28s4.46.41,6.29,1.22c1.84.81,3.41,1.74,4.73,2.78l-3.83,5.16c-1.16-.85-2.31-1.53-3.45-2.03-1.14-.5-2.31-.75-3.51-.75-1.51,0-2.61.29-3.31.87-.7.58-1.04,1.33-1.04,2.26,0,.77.29,1.42.87,1.94.58.52,1.37.98,2.38,1.36,1,.39,2.07.79,3.19,1.22,1.08.39,2.15.84,3.22,1.36,1.06.52,2.04,1.15,2.93,1.89s1.6,1.63,2.12,2.7c.52,1.06.78,2.35.78,3.86,0,1.89-.49,3.62-1.48,5.19-.99,1.57-2.44,2.8-4.35,3.71-1.91.91-4.28,1.36-7.11,1.36Z"/>
        <path d="M972.16,202.54c-2.17,0-4.36-.43-6.58-1.28-2.22-.85-4.15-1.93-5.77-3.25l3.89-5.39c1.43,1.08,2.85,1.94,4.26,2.58,1.41.64,2.89.96,4.44.96s2.81-.32,3.57-.96,1.13-1.46,1.13-2.46c0-.81-.33-1.5-.99-2.06-.66-.56-1.51-1.06-2.55-1.51-1.04-.44-2.13-.88-3.25-1.3-1.35-.54-2.7-1.2-4.03-1.97s-2.45-1.77-3.33-2.99c-.89-1.22-1.33-2.74-1.33-4.55,0-1.93.5-3.64,1.51-5.13,1-1.49,2.41-2.66,4.21-3.51,1.8-.85,3.93-1.28,6.41-1.28s4.46.41,6.29,1.22c1.84.81,3.41,1.74,4.73,2.78l-3.83,5.16c-1.16-.85-2.31-1.53-3.45-2.03-1.14-.5-2.31-.75-3.51-.75-1.51,0-2.61.29-3.31.87-.7.58-1.04,1.33-1.04,2.26,0,.77.29,1.42.87,1.94.58.52,1.37.98,2.38,1.36,1,.39,2.07.79,3.19,1.22,1.08.39,2.16.84,3.22,1.36,1.06.52,2.04,1.15,2.93,1.89.89.73,1.59,1.63,2.12,2.7.52,1.06.78,2.35.78,3.86,0,1.89-.49,3.62-1.48,5.19-.99,1.57-2.44,2.8-4.35,3.71-1.91.91-4.28,1.36-7.1,1.36Z"/>
      </g>
      <g>
        <polygon class="cls-1" points="110.06 1.08 217.81 90.35 2.3 90.35 110.06 1.08"/>
        <rect class="cls-3" x="67.78" y="57.66" width="79.65" height="161.17" transform="translate(-.26 .2) rotate(-.11)"/>
      </g>
    </g>
  </g>
</svg>