<?xml version="1.0" encoding="UTF-8"?>
<svg id="_レイヤー_2" data-name="レイヤー 2" xmlns="http://www.w3.org/2000/svg" viewBox="0 0 395.82 471.82">
  <defs>
    <style>
      .cls-1 {
        fill: none;
        stroke: #fff;
        stroke-miterlimit: 10;
        stroke-width: 4.82px;
      }

      .cls-2 {
        fill: #fff;
      }
    </style>
  </defs>
  <g id="_レイヤー_1-2" data-name="レイヤー 1">
    <g>
      <rect class="cls-1" x="2.41" y="2.41" width="391" height="467"/>
      <g>
        <g>
          <rect class="cls-2" x="22.91" y="234.78" width="350" height="96"/>
          <g>
            <path d="M91.96,274.61c.24.02.55.07.94.13.38.06.83.11,1.33.14.5.04,1.06.05,1.66.05h23.62c.96,0,1.74-.02,2.34-.07.6-.05,1.14-.11,1.62-.18v4.79c-.38-.05-.9-.08-1.55-.09-.65-.01-1.45-.02-2.41-.02h-23.62c-.6,0-1.15,0-1.64.02-.49.01-.92.03-1.3.05-.37.02-.7.05-.99.07v-4.9ZM103.84,268.13c-.05.34-.1.79-.14,1.35-.05.56-.07,1.19-.07,1.89v12.89c0,.53.01,1.04.04,1.53.02.49.04.92.05,1.3.01.37.03.69.05.95h-5.04c.05-.26.08-.58.11-.95.02-.37.05-.8.07-1.3.02-.49.04-1,.04-1.53v-12.89c0-.53-.02-1.07-.05-1.62-.04-.55-.09-1.09-.16-1.62h5.11ZM116.84,280.55c0,2.23-.16,4.25-.49,6.07-.32,1.81-.88,3.46-1.67,4.93s-1.9,2.8-3.31,3.98c-1.42,1.18-3.2,2.24-5.36,3.2l-3.85-3.64c1.73-.6,3.22-1.27,4.48-2.02,1.26-.74,2.3-1.66,3.11-2.75.82-1.09,1.42-2.41,1.82-3.96.4-1.55.59-3.43.59-5.63v-9.58c0-.74-.02-1.4-.07-1.96-.05-.56-.1-1.03-.14-1.39h5.15c-.05.36-.1.82-.16,1.39-.06.56-.09,1.22-.09,1.96v9.4Z"/>
            <path d="M156.98,272.92c-.17.34-.31.74-.43,1.21-.12.47-.24.89-.36,1.28-.19.89-.44,1.88-.76,2.97-.31,1.09-.68,2.23-1.12,3.4-.43,1.18-.94,2.34-1.53,3.49-.59,1.15-1.25,2.23-2,3.24-1.08,1.44-2.34,2.78-3.78,4.03-1.44,1.25-3.05,2.38-4.82,3.38-1.78,1.01-3.73,1.86-5.87,2.56l-3.92-4.32c2.4-.58,4.46-1.28,6.19-2.12,1.73-.84,3.23-1.8,4.52-2.88,1.28-1.08,2.42-2.23,3.4-3.46.79-1.01,1.47-2.1,2.03-3.28.56-1.18,1.03-2.36,1.4-3.55s.63-2.3.77-3.33h-16.74c-.84,0-1.65.01-2.43.04s-1.4.06-1.85.11v-5.08c.36.05.8.1,1.31.14.52.05,1.04.08,1.58.11.54.02,1,.04,1.39.04h16.67c.36,0,.8-.01,1.31-.04.52-.02,1.01-.11,1.49-.25l3.53,2.3ZM152.62,270.07c0-.79.2-1.52.59-2.18.4-.66.92-1.18,1.57-1.57s1.36-.58,2.12-.58,1.52.19,2.18.58,1.18.91,1.57,1.57c.38.66.58,1.39.58,2.18s-.19,1.48-.58,2.12c-.38.65-.91,1.17-1.57,1.57-.66.4-1.39.59-2.18.59s-1.48-.2-2.12-.59c-.65-.4-1.17-.92-1.57-1.57s-.59-1.36-.59-2.12ZM154.85,270.07c0,.58.2,1.06.61,1.46.41.4.89.59,1.44.59s1.07-.2,1.48-.59c.41-.4.61-.88.61-1.46s-.2-1.07-.61-1.48c-.41-.41-.9-.61-1.48-.61s-1.03.2-1.44.61c-.41.41-.61.9-.61,1.48Z"/>
            <path d="M194.45,279.29c-.12.24-.25.5-.38.79-.13.29-.23.53-.31.72-.55,1.73-1.24,3.45-2.07,5.17-.83,1.72-1.91,3.32-3.26,4.81-1.8,2.02-3.82,3.65-6.05,4.91-2.23,1.26-4.5,2.21-6.8,2.86l-3.56-4.07c2.71-.58,5.12-1.42,7.24-2.52,2.11-1.1,3.85-2.36,5.22-3.78.96-.98,1.73-2.02,2.32-3.11.59-1.09,1.05-2.13,1.39-3.11h-17.39c-.43,0-1.04.01-1.84.04-.79.02-1.57.07-2.34.14v-4.68c.77.05,1.52.1,2.25.14.73.05,1.37.07,1.93.07h17.82c.58,0,1.1-.04,1.57-.11.47-.07.82-.16,1.06-.25l3.2,1.98ZM169.94,268.85c.5.07,1.1.12,1.8.14.7.02,1.34.04,1.94.04h13.86c.55,0,1.21-.01,1.98-.04s1.4-.07,1.91-.14v4.64c-.48-.05-1.1-.08-1.85-.09-.76-.01-1.46-.02-2.11-.02h-13.79c-.58,0-1.21.01-1.89.04-.68.02-1.3.05-1.85.07v-4.64Z"/>
            <path d="M200.14,282.46c3.24-.84,6.17-1.82,8.8-2.93,2.63-1.12,4.94-2.29,6.93-3.51,1.25-.77,2.5-1.65,3.76-2.65,1.26-1,2.45-2.02,3.56-3.08,1.12-1.06,2.06-2.06,2.83-3.02l3.89,3.71c-1.1,1.08-2.31,2.17-3.62,3.28-1.31,1.1-2.67,2.16-4.09,3.17s-2.82,1.93-4.21,2.77c-1.37.79-2.9,1.61-4.59,2.45-1.69.84-3.47,1.63-5.35,2.38-1.87.74-3.76,1.4-5.65,1.98l-2.27-4.54ZM215.12,278.32l5.11-1.19v16.2c0,.53.01,1.1.04,1.73.02.62.06,1.21.11,1.75.05.54.11.95.18,1.24h-5.69c.05-.29.09-.7.13-1.24s.07-1.12.09-1.75.04-1.2.04-1.73v-15.01Z"/>
            <path d="M267.75,273.64c-.43.91-1,1.96-1.71,3.13-.71,1.18-1.49,2.39-2.34,3.64-.85,1.25-1.72,2.44-2.59,3.56-.88,1.13-1.67,2.1-2.39,2.92l-4.64-2.2c.67-.58,1.34-1.22,2.02-1.93.67-.71,1.31-1.43,1.91-2.18.6-.74,1.14-1.46,1.62-2.14.48-.68.86-1.28,1.15-1.78-.34.05-.95.16-1.84.34-.89.18-1.97.4-3.26.65-1.28.25-2.66.53-4.14.85-1.48.31-2.97.62-4.48.92-1.51.3-2.95.59-4.3.88s-2.54.55-3.56.77c-1.02.23-1.78.4-2.29.52l-1.26-4.86c.7-.07,1.37-.15,2.02-.23.65-.08,1.33-.17,2.05-.27.31-.05.91-.15,1.78-.31.88-.16,1.93-.35,3.15-.58s2.54-.47,3.96-.74c1.42-.26,2.84-.53,4.27-.81,1.43-.28,2.78-.54,4.05-.79,1.27-.25,2.38-.47,3.33-.67.95-.19,1.64-.34,2.07-.43.38-.07.77-.17,1.15-.29.38-.12.71-.24.97-.36l3.31,2.38ZM246.8,267.09c.07.46.17.95.29,1.49s.25,1.11.4,1.71c.29.96.62,2.13.99,3.51.37,1.38.78,2.86,1.22,4.43.44,1.57.89,3.16,1.33,4.77.44,1.61.87,3.14,1.28,4.61.41,1.46.77,2.77,1.1,3.91.32,1.14.57,2.02.74,2.65.1.24.2.57.32.99.12.42.26.85.41,1.28.16.43.29.8.41,1.12l-5.36,1.26c-.07-.5-.18-1.09-.32-1.76-.14-.67-.3-1.31-.47-1.91-.14-.5-.34-1.23-.59-2.18-.25-.95-.55-2.05-.88-3.29-.34-1.25-.69-2.57-1.06-3.98-.37-1.4-.75-2.81-1.13-4.23-.38-1.42-.75-2.77-1.1-4.07-.35-1.3-.67-2.46-.95-3.49s-.53-1.85-.72-2.45c-.22-.82-.42-1.46-.61-1.93-.19-.47-.38-.88-.58-1.24l5.29-1.19Z"/>
            <path d="M273.22,279.79c.43.02.98.05,1.66.09.67.04,1.37.07,2.11.09.73.02,1.41.04,2.03.04h19.33c.84,0,1.63-.03,2.38-.09.74-.06,1.36-.1,1.84-.13v5.65c-.41-.02-1.02-.06-1.84-.11-.82-.05-1.61-.07-2.38-.07h-19.33c-1.03,0-2.09.02-3.17.05s-1.96.08-2.63.13v-5.65Z"/>
          </g>
        </g>
        <g>
          <rect class="cls-2" x="22.91" y="340.03" width="350" height="96"/>
          <g>
            <path d="M136.42,378.96l4.1,1.58c-.94,1.58-2.02,3.17-3.26,4.77-1.24,1.6-2.53,3.1-3.89,4.52-1.36,1.42-2.68,2.65-3.98,3.71-.19-.31-.47-.7-.83-1.17-.36-.47-.73-.94-1.1-1.42-.37-.48-.71-.86-1.03-1.15,1.25-.86,2.48-1.88,3.71-3.04,1.22-1.16,2.38-2.41,3.46-3.74s2.02-2.68,2.81-4.05ZM135.05,371.11l4.18,1.73c-.89,1.13-1.88,2.27-2.99,3.44-1.1,1.16-2.26,2.27-3.46,3.33-1.2,1.06-2.38,1.98-3.53,2.77-.17-.34-.4-.73-.68-1.17-.29-.44-.58-.88-.88-1.31-.3-.43-.58-.79-.85-1.08,1.01-.62,2.03-1.38,3.06-2.27,1.03-.89,2-1.81,2.92-2.75.91-.95,1.66-1.84,2.23-2.68ZM132.35,387.42l3.78-3.82.54.22v21.17h-4.32v-17.57ZM140.45,383.17h20.05v4.1h-20.05v-4.1ZM142,373.16h17.57v4.14h-17.57v-4.14ZM151.11,384.4h4.43v15.55c0,1.13-.14,2.02-.41,2.68s-.81,1.16-1.6,1.49c-.79.31-1.76.51-2.92.59-1.15.08-2.53.13-4.14.13-.1-.62-.27-1.36-.52-2.21s-.52-1.58-.81-2.18c.7.02,1.39.05,2.09.07.7.02,1.32.03,1.87.02.55-.01.94-.02,1.15-.02.34,0,.56-.05.68-.16.12-.11.18-.28.18-.52v-15.44Z"/>
            <path d="M162.63,397.5c1.46-.24,3.15-.54,5.06-.9,1.91-.36,3.92-.76,6.05-1.19,2.12-.43,4.22-.86,6.28-1.3l.4,3.96c-1.99.43-4,.88-6.01,1.33-2.02.46-3.97.89-5.85,1.31-1.88.42-3.59.8-5.13,1.13l-.79-4.36ZM163.49,373.24h16.56v4.18h-16.56v-4.18ZM164.54,381.73h3.89v17.03h-3.89v-17.03ZM170.73,375.47h4.21v22.61h-4.21v-22.61ZM172.6,383.71h6.44v4.07h-6.44v-4.07ZM183.55,371.11l4.28.68c-.41,2.3-.93,4.55-1.57,6.73-.64,2.18-1.39,4.2-2.25,6.05-.86,1.85-1.85,3.46-2.95,4.82-.22-.26-.52-.59-.92-.97-.4-.38-.82-.76-1.26-1.13-.44-.37-.83-.67-1.17-.88,1.03-1.18,1.92-2.57,2.66-4.18.74-1.61,1.38-3.37,1.91-5.27.53-1.91.95-3.86,1.26-5.85ZM190.38,380.15l4.28.36c-.53,4.1-1.33,7.71-2.41,10.82-1.08,3.11-2.58,5.79-4.5,8.05-1.92,2.26-4.39,4.14-7.42,5.65-.12-.34-.32-.74-.61-1.22-.29-.48-.6-.95-.94-1.42s-.64-.86-.9-1.17c2.74-1.22,4.95-2.8,6.64-4.72,1.69-1.92,2.99-4.24,3.91-6.95.91-2.71,1.56-5.84,1.94-9.4ZM184.77,380.87c.53,3.07,1.3,5.95,2.3,8.62,1.01,2.68,2.33,5.02,3.96,7.02,1.63,2,3.66,3.57,6.08,4.7-.31.26-.66.61-1.04,1.04-.38.43-.74.88-1.06,1.35-.32.47-.61.89-.85,1.28-2.59-1.39-4.75-3.22-6.46-5.47-1.72-2.26-3.11-4.9-4.18-7.92-1.07-3.02-1.93-6.36-2.57-10.01l3.82-.61ZM182.64,377.7h14.15v4h-14.15v-4Z"/>
            <path d="M203.31,381.34l2.23.76c-.22,1.39-.49,2.85-.83,4.37-.34,1.52-.72,3.02-1.15,4.48-.43,1.46-.91,2.83-1.42,4.1-.52,1.27-1.06,2.36-1.64,3.28-.19-.53-.47-1.15-.85-1.85-.37-.71-.7-1.3-.99-1.78.5-.79,1-1.71,1.48-2.75.48-1.04.92-2.17,1.33-3.38.41-1.21.77-2.44,1.08-3.67.31-1.24.56-2.42.76-3.55ZM199.49,378.6h11.02v3.92h-11.02v-3.92ZM203.38,371.11h3.85v33.8h-3.85v-33.8ZM207.02,383.71c.19.24.48.67.86,1.28.38.61.8,1.28,1.24,2.02.44.73.85,1.4,1.21,2.02s.61,1.05.76,1.31l-2.05,2.99c-.17-.53-.41-1.16-.72-1.89-.31-.73-.65-1.49-1.01-2.27-.36-.78-.71-1.51-1.04-2.2-.34-.68-.6-1.24-.79-1.67l1.55-1.58ZM212.81,391.24h3.82c-.12,1.82-.35,3.58-.7,5.26-.35,1.68-.93,3.23-1.75,4.66-.82,1.43-1.97,2.67-3.46,3.73-.26-.46-.63-.97-1.1-1.53-.47-.56-.92-1-1.35-1.31,1.22-.82,2.15-1.8,2.77-2.95.62-1.15,1.06-2.4,1.3-3.74.24-1.34.4-2.71.47-4.1ZM209.64,377.92l1.58-2.38c.74.53,1.52,1.15,2.32,1.87.8.72,1.41,1.37,1.82,1.94l-1.69,2.66c-.38-.6-.97-1.29-1.76-2.07-.79-.78-1.55-1.46-2.27-2.03ZM209.9,384.58c1.08-.07,2.32-.16,3.73-.27,1.4-.11,2.86-.22,4.37-.34l.07,2.95c-1.32.17-2.62.32-3.91.47-1.28.14-2.51.28-3.69.4l-.58-3.2ZM210.44,389.47h22.1v3.35h-22.1v-3.35ZM216.63,375.22l2.99,1.4c-.67,1.06-1.39,2.17-2.16,3.33-.77,1.16-1.54,2.28-2.3,3.35-.77,1.07-1.5,2.01-2.2,2.83l-2.23-1.22c.67-.86,1.37-1.86,2.09-2.99.72-1.13,1.42-2.28,2.11-3.46.68-1.18,1.25-2.26,1.71-3.24ZM213.6,371.33l3.2,1.26c-.58,1.01-1.16,2.05-1.75,3.11-.59,1.07-1.12,1.97-1.6,2.72l-2.3-1.01c.29-.55.59-1.18.9-1.89.31-.71.61-1.43.88-2.18.28-.74.5-1.42.67-2.02ZM213.39,396.31l2.16-2.59c.6.34,1.22.73,1.85,1.19.64.46,1.24.91,1.8,1.37.56.46,1.03.86,1.39,1.22l-2.3,2.92c-.34-.41-.78-.85-1.33-1.33-.55-.48-1.14-.97-1.76-1.46-.62-.49-1.22-.93-1.8-1.31ZM215.76,382.49l2.41-.79c.41.86.77,1.81,1.08,2.83.31,1.02.5,1.88.58,2.57l-2.59,1.01c-.07-.74-.25-1.64-.52-2.7-.28-1.06-.59-2.03-.95-2.92ZM227.25,392.75l3.6,1.37c-1.25,2.5-2.94,4.66-5.08,6.48s-4.57,3.26-7.31,4.32c-.22-.41-.56-.89-1.03-1.44-.47-.55-.88-1-1.24-1.33,2.59-.91,4.84-2.17,6.75-3.78,1.91-1.61,3.34-3.48,4.3-5.62ZM219,371.15h3.78c-.07,3.29-.03,6.43.13,9.43.16,3,.4,5.77.74,8.3.34,2.53.77,4.73,1.3,6.59.53,1.86,1.15,3.31,1.85,4.34.71,1.03,1.51,1.55,2.39,1.55.43,0,.74-.23.94-.68.19-.46.34-1.4.43-2.84.41.38.88.75,1.4,1.1.53.35,1,.63,1.4.85-.19,1.37-.46,2.42-.81,3.17-.35.74-.82,1.27-1.4,1.57-.59.3-1.35.45-2.29.45-1.56,0-2.91-.59-4.05-1.78-1.14-1.19-2.09-2.84-2.84-4.97-.76-2.12-1.34-4.61-1.76-7.45-.42-2.84-.73-5.93-.92-9.25-.19-3.32-.29-6.77-.29-10.35ZM222.21,377.92l1.62-2.38c.74.53,1.52,1.15,2.32,1.87.8.72,1.4,1.37,1.78,1.94l-1.66,2.66c-.38-.6-.97-1.29-1.76-2.07-.79-.78-1.56-1.46-2.3-2.03ZM222.86,384c1.1-.05,2.34-.13,3.71-.23,1.37-.11,2.81-.22,4.32-.34l.07,2.74c-1.32.17-2.6.34-3.85.5s-2.45.31-3.6.43l-.65-3.1ZM229.23,375.22l2.95,1.4c-.65,1.01-1.34,2.06-2.07,3.17-.73,1.1-1.46,2.16-2.2,3.17-.73,1.01-1.42,1.9-2.07,2.66l-2.27-1.26c.65-.79,1.32-1.72,2.02-2.79.7-1.07,1.37-2.16,2.02-3.28.65-1.12,1.19-2.14,1.62-3.08ZM226.2,371.33l3.24,1.22c-.6,1.01-1.19,2.04-1.78,3.1-.59,1.06-1.12,1.94-1.6,2.66l-2.3-1.04c.29-.55.58-1.17.88-1.85.3-.68.59-1.39.86-2.11.28-.72.51-1.38.7-1.98ZM225.09,388.14l2.12-1.87c.58.36,1.18.78,1.8,1.26.62.48,1.1.92,1.44,1.33l-2.23,2.05c-.31-.41-.77-.88-1.39-1.4-.61-.53-1.19-.98-1.75-1.37ZM228.94,382.09l2.41-.94c.46.89.86,1.83,1.22,2.83.36,1,.59,1.85.68,2.57l-2.59,1.08c-.1-.74-.31-1.64-.63-2.68-.32-1.04-.69-2-1.1-2.86Z"/>
            <path d="M236.75,372.52h4.21v32.44h-4.21v-32.44ZM238.91,377.23h9.04v2.7h-9.04v-2.7ZM239.31,372.52h11.38v12.2h-11.38v-2.95h7.34v-6.26h-7.34v-2.99ZM249.68,389.69h3.85v3.89c0,.84-.11,1.7-.34,2.59-.23.89-.65,1.76-1.26,2.61-.61.85-1.49,1.66-2.65,2.43-1.15.77-2.66,1.45-4.54,2.05-.26-.38-.64-.85-1.13-1.4-.49-.55-.97-1.01-1.42-1.37,1.63-.43,2.95-.94,3.94-1.53,1-.59,1.75-1.2,2.27-1.84.52-.64.86-1.27,1.03-1.89.17-.62.25-1.21.25-1.76v-3.78ZM242.87,393.14h18.07v3.1h-18.07v-3.1ZM243.38,388.21h17.17v3.02h-17.17v-3.02ZM245,385.87l3.31-.94c.38.53.74,1.12,1.08,1.76.34.65.56,1.24.68,1.76l-3.53,1.01c-.12-.5-.32-1.09-.59-1.76-.28-.67-.59-1.28-.95-1.84ZM253.17,394.51c.65,1.42,1.64,2.62,2.99,3.62,1.34,1,3,1.69,4.97,2.07-.38.36-.81.85-1.28,1.46-.47.61-.82,1.16-1.06,1.64-2.21-.62-4.03-1.62-5.47-3.01-1.44-1.38-2.53-3.08-3.28-5.09l3.13-.68ZM265.23,372.52v2.99h-8.1v6.37h8.1v2.95h-12.2v-12.31h12.2ZM255,384.9l3.96,1.08c-.5.7-.98,1.37-1.42,2.03-.44.66-.85,1.24-1.21,1.75l-2.84-.97c.29-.58.58-1.23.86-1.96.29-.73.5-1.37.65-1.93ZM255.51,377.23h9.07v2.7h-9.07v-2.7ZM263,372.52h4.25v27.86c0,.98-.1,1.78-.31,2.38-.2.6-.59,1.07-1.17,1.4-.58.33-1.27.55-2.09.65-.82.1-1.79.14-2.92.14-.05-.58-.19-1.25-.41-2.03s-.47-1.45-.74-2c.58.02,1.15.04,1.71.05.56.01.93,0,1.1-.02.24,0,.4-.05.47-.14.07-.1.11-.25.11-.47v-27.83Z"/>
          </g>
        </g>
        <g>
          <rect class="cls-2" x="22.91" y="129.53" width="350" height="96"/>
          <g>
            <path d="M72.52,185.31c1.18-.29,2.51-.62,4.01-.99,1.5-.37,3.08-.79,4.73-1.24,1.66-.46,3.31-.91,4.97-1.37l.54,3.82c-2.26.67-4.55,1.35-6.88,2.03-2.33.68-4.42,1.29-6.26,1.82l-1.12-4.07ZM73.38,162.52h12.67v4h-12.67v-4ZM73.71,172.82h11.99v3.96h-11.99v-3.96ZM77.78,164.1h4.14v21.13l-4.14.65v-21.78ZM90.16,181.74h4.25c-.14,1.56-.38,2.99-.7,4.3-.32,1.31-.85,2.5-1.57,3.58-.72,1.08-1.71,2.04-2.97,2.88-1.26.84-2.87,1.56-4.84,2.16-.14-.36-.35-.76-.61-1.21-.26-.44-.55-.88-.86-1.3-.31-.42-.61-.77-.9-1.06,1.68-.41,3.05-.92,4.1-1.53,1.06-.61,1.86-1.31,2.41-2.09.55-.78.95-1.64,1.19-2.59.24-.95.41-2,.5-3.15ZM87.46,162.02h17.71v20.3h-17.71v-20.3ZM91.49,165.51v2.23h9.43v-2.23h-9.43ZM91.49,171.02v2.23h9.43v-2.23h-9.43ZM91.49,176.52v2.23h9.43v-2.23h-9.43ZM96.57,180.7h4.1v8.68c0,.53.04.86.13.99.08.13.28.2.59.2h1.48c.22,0,.38-.1.49-.29.11-.19.19-.59.25-1.21.06-.61.1-1.51.13-2.68.29.22.64.43,1.06.63.42.2.86.38,1.33.54.47.16.88.29,1.24.41-.12,1.63-.33,2.9-.63,3.82-.3.91-.72,1.55-1.26,1.93-.54.37-1.24.56-2.11.56h-2.77c-1.1,0-1.94-.16-2.52-.47-.58-.31-.97-.82-1.19-1.53-.22-.71-.32-1.66-.32-2.86v-8.71Z"/>
            <path d="M108.66,185.02c.98-.36,2.14-.8,3.46-1.31,1.32-.52,2.72-1.09,4.19-1.71,1.48-.62,2.95-1.24,4.41-1.84l.97,3.82c-1.92.96-3.87,1.91-5.85,2.84s-3.8,1.78-5.45,2.52l-1.73-4.32ZM109.13,168.96h11.92v4.1h-11.92v-4.1ZM113.34,161.12h4.03v23.87h-4.03v-23.87ZM119.5,175.12l18.65-7.96,1.55,3.71-18.61,8.06-1.58-3.82ZM123.06,164.1h4.1v23.33c0,.7.05,1.22.16,1.57.11.35.35.58.72.7.37.12.92.18,1.64.18h7.02c.65,0,1.14-.12,1.48-.36.34-.24.59-.68.76-1.33.17-.65.3-1.6.4-2.84.46.34,1.05.65,1.78.95.73.3,1.4.51,2,.63-.19,1.7-.49,3.05-.9,4.03-.41.98-1.02,1.69-1.84,2.12-.82.43-1.92.65-3.31.65h-7.7c-1.63,0-2.91-.18-3.83-.54-.92-.36-1.57-1-1.93-1.91-.36-.91-.54-2.2-.54-3.85v-23.33ZM130.16,160.61h4.03v25.42h-4.03v-25.42ZM137.32,167.63h-.29l.76-.54.79-.5,2.99,1.08-.14.72c0,1.7,0,3.26-.02,4.66-.01,1.4-.02,2.64-.04,3.71-.01,1.07-.04,1.96-.07,2.68-.04.72-.08,1.26-.13,1.62-.05.84-.23,1.49-.54,1.96-.31.47-.74.82-1.3,1.06-.53.24-1.15.38-1.85.43-.71.05-1.35.07-1.93.07-.05-.55-.16-1.18-.32-1.89-.17-.71-.36-1.29-.58-1.75.31.02.64.04.97.05.34.01.59.02.76.02.22,0,.39-.05.52-.14.13-.1.22-.31.27-.65.02-.17.05-.55.07-1.15.02-.6.04-1.41.04-2.43s0-2.28.02-3.78c.01-1.5.02-3.25.02-5.24Z"/>
            <path d="M150.82,180.02c.41-1.01.8-2.07,1.17-3.19.37-1.12.7-2.27.99-3.46.29-1.19.55-2.37.77-3.55.23-1.18.39-2.34.49-3.49l5.26,1.08c-.1.34-.2.73-.32,1.19-.12.46-.23.9-.32,1.33-.1.43-.17.79-.22,1.08-.12.62-.29,1.38-.5,2.27-.22.89-.47,1.83-.76,2.83-.29,1-.58,1.99-.88,2.99-.3,1-.61,1.91-.92,2.75-.43,1.15-.94,2.35-1.53,3.6-.59,1.25-1.21,2.45-1.87,3.6-.66,1.15-1.3,2.18-1.93,3.1l-5.04-2.12c1.15-1.49,2.23-3.13,3.22-4.93,1-1.8,1.79-3.49,2.39-5.08ZM168.6,179.26c-.36-.96-.76-1.98-1.19-3.06-.43-1.08-.89-2.16-1.37-3.24-.48-1.08-.95-2.1-1.4-3.06-.46-.96-.88-1.79-1.26-2.48l4.79-1.55c.36.7.78,1.54,1.26,2.52.48.98.96,2.02,1.44,3.11.48,1.09.95,2.18,1.4,3.26.46,1.08.86,2.05,1.22,2.92.31.79.65,1.73,1.03,2.81.37,1.08.76,2.2,1.15,3.37s.77,2.3,1.12,3.4c.35,1.1.64,2.1.88,2.99l-5.33,1.73c-.31-1.42-.67-2.86-1.08-4.32-.41-1.46-.83-2.9-1.28-4.32-.44-1.42-.91-2.77-1.39-4.07ZM170.51,165.33c0-.79.2-1.52.59-2.18.4-.66.92-1.18,1.57-1.57.65-.38,1.37-.58,2.16-.58s1.51.19,2.16.58c.65.38,1.17.91,1.57,1.57.4.66.59,1.39.59,2.18s-.2,1.48-.59,2.12c-.4.65-.92,1.17-1.57,1.57s-1.37.59-2.16.59-1.51-.2-2.16-.59-1.17-.92-1.57-1.57c-.4-.65-.59-1.36-.59-2.12ZM172.74,165.33c0,.58.2,1.06.61,1.46.41.4.9.59,1.48.59s1.07-.2,1.48-.59c.41-.4.61-.88.61-1.46s-.2-1.07-.61-1.48c-.41-.41-.9-.61-1.48-.61s-1.07.2-1.48.61c-.41.41-.61.9-.61,1.48Z"/>
            <path d="M183.22,174.54c.43.02.98.05,1.66.09.67.04,1.37.07,2.11.09.73.02,1.41.04,2.03.04h19.33c.84,0,1.63-.03,2.38-.09.74-.06,1.36-.1,1.84-.13v5.65c-.41-.02-1.02-.06-1.84-.11-.82-.05-1.61-.07-2.38-.07h-19.33c-1.03,0-2.09.02-3.17.05s-1.96.08-2.63.13v-5.65Z"/>
            <path d="M227.21,187.76v-20.7c0-.62-.03-1.34-.09-2.16-.06-.82-.15-1.54-.27-2.16h5.62c-.07.62-.14,1.31-.22,2.07-.07.76-.11,1.51-.11,2.25v20.7c0,.34.01.81.04,1.42.02.61.07,1.24.14,1.89s.12,1.22.14,1.73h-5.62c.1-.72.18-1.56.25-2.52.07-.96.11-1.8.11-2.52ZM231.06,172.06c1.2.31,2.54.71,4.03,1.21,1.49.49,2.99,1.01,4.5,1.57,1.51.55,2.93,1.1,4.27,1.64s2.44,1.04,3.33,1.49l-2.05,4.97c-1.01-.53-2.12-1.06-3.35-1.6-1.22-.54-2.47-1.06-3.73-1.57-1.26-.5-2.5-.97-3.71-1.4-1.21-.43-2.31-.82-3.29-1.15v-5.15Z"/>
            <path d="M255.04,170.66c.55.05,1.18.1,1.87.16.7.06,1.4.09,2.12.09h22.43c.84,0,1.61-.02,2.32-.07.71-.05,1.24-.1,1.6-.14v4.9c-.36-.02-.93-.05-1.71-.09-.78-.04-1.53-.05-2.25-.05h-22.25c-.79,0-1.54.02-2.23.05-.7.04-1.33.08-1.91.13v-4.97ZM268.4,166.95c0-.6-.04-1.31-.11-2.14-.07-.83-.19-1.52-.36-2.07h5.72c-.1.55-.17,1.25-.22,2.11-.05.85-.07,1.57-.07,2.14v7.09c0,1.97-.16,3.83-.47,5.6-.31,1.76-.85,3.45-1.6,5.06-.76,1.61-1.8,3.12-3.13,4.54s-3.03,2.74-5.09,3.96l-4.46-3.31c1.9-.86,3.47-1.86,4.73-2.99,1.26-1.13,2.26-2.36,3.01-3.71.74-1.34,1.27-2.78,1.58-4.32.31-1.54.47-3.14.47-4.82v-7.13Z"/>
            <path d="M291.22,174.54c.43.02.98.05,1.66.09.67.04,1.37.07,2.11.09.73.02,1.41.04,2.03.04h19.33c.84,0,1.63-.03,2.38-.09.74-.06,1.36-.1,1.84-.13v5.65c-.41-.02-1.02-.06-1.84-.11-.82-.05-1.61-.07-2.38-.07h-19.33c-1.03,0-2.09.02-3.17.05s-1.96.08-2.63.13v-5.65Z"/>
          </g>
        </g>
      </g>
      <g>
        <path class="cls-2" d="M16.22,92.92v-50.39h10.06v50.39h-10.06Z"/>
        <path class="cls-2" d="M38.66,92.92v-50.39h10.27l14.62,26.86,5.1,10.88h.34c-.27-2.63-.57-5.51-.88-8.64-.32-3.13-.48-6.12-.48-8.98v-20.13h9.52v50.39h-10.27l-14.48-26.93-5.1-10.81h-.34c.23,2.72.5,5.6.82,8.64.32,3.04.48,6.01.48,8.91v20.2h-9.59Z"/>
        <path class="cls-2" d="M89.59,92.92v-50.39h13.8c5.17,0,9.6.91,13.29,2.72,3.69,1.81,6.55,4.56,8.57,8.23s3.03,8.34,3.03,14.01-1,10.38-2.99,14.14c-2,3.76-4.81,6.59-8.43,8.47-3.63,1.88-7.93,2.82-12.92,2.82h-14.35ZM99.65,84.76h3.06c3.17,0,5.91-.58,8.19-1.73,2.29-1.16,4.05-3.01,5.27-5.58,1.22-2.56,1.84-5.88,1.84-9.96s-.61-7.35-1.84-9.83c-1.22-2.47-2.98-4.26-5.27-5.37-2.29-1.11-5.02-1.67-8.19-1.67h-3.06v34.14Z"/>
        <path class="cls-2" d="M158.13,93.87c-4.44,0-8.35-1.05-11.73-3.16-3.38-2.11-6.02-5.13-7.92-9.08-1.9-3.94-2.86-8.66-2.86-14.14s.95-10.09,2.86-13.94c1.9-3.85,4.54-6.8,7.92-8.84,3.38-2.04,7.29-3.06,11.73-3.06s8.41,1.03,11.76,3.09c3.35,2.06,5.98,5.01,7.89,8.84,1.9,3.83,2.86,8.47,2.86,13.91s-.95,10.2-2.86,14.14-4.53,6.97-7.89,9.08c-3.36,2.11-7.28,3.16-11.76,3.16ZM158.13,85.17c2.49,0,4.66-.72,6.49-2.18,1.84-1.45,3.25-3.5,4.25-6.15s1.5-5.77,1.5-9.35-.5-6.65-1.5-9.21c-1-2.56-2.41-4.53-4.25-5.92-1.84-1.38-4-2.07-6.49-2.07s-4.66.69-6.49,2.07c-1.84,1.38-3.24,3.36-4.22,5.92-.98,2.56-1.46,5.63-1.46,9.21s.49,6.7,1.46,9.35c.97,2.65,2.38,4.7,4.22,6.15,1.84,1.45,4,2.18,6.49,2.18Z"/>
        <path class="cls-2" d="M190.5,92.92v-50.39h10.27l14.62,26.86,5.1,10.88h.34c-.27-2.63-.57-5.51-.88-8.64-.32-3.13-.48-6.12-.48-8.98v-20.13h9.52v50.39h-10.27l-14.48-26.93-5.1-10.81h-.34c.23,2.72.5,5.6.82,8.64.32,3.04.48,6.01.48,8.91v20.2h-9.59Z"/>
        <path class="cls-2" d="M241.43,92.92v-50.39h30.87v8.43h-20.81v11.63h17.61v8.43h-17.61v13.46h21.56v8.43h-31.62Z"/>
        <path class="cls-2" d="M298.28,93.87c-3.36,0-6.64-.64-9.86-1.9-3.22-1.27-6.05-3.08-8.5-5.44l5.78-6.94c1.77,1.68,3.8,3.03,6.09,4.05,2.29,1.02,4.52,1.53,6.7,1.53,2.63,0,4.62-.52,5.98-1.56,1.36-1.04,2.04-2.45,2.04-4.22,0-1.27-.33-2.28-.99-3.03-.66-.75-1.55-1.42-2.69-2.01-1.13-.59-2.45-1.18-3.94-1.77l-6.66-2.92c-1.68-.68-3.3-1.6-4.86-2.75-1.56-1.16-2.86-2.62-3.88-4.39-1.02-1.77-1.53-3.88-1.53-6.32,0-2.76.75-5.24,2.24-7.41,1.5-2.18,3.56-3.91,6.19-5.2,2.63-1.29,5.62-1.94,8.98-1.94,2.99,0,5.87.57,8.64,1.7,2.76,1.13,5.17,2.74,7.21,4.83l-5.1,6.26c-1.59-1.31-3.24-2.33-4.96-3.06-1.72-.72-3.65-1.09-5.78-1.09s-3.91.47-5.2,1.39c-1.29.93-1.94,2.23-1.94,3.91,0,1.18.36,2.15,1.09,2.92.72.77,1.68,1.44,2.86,2.01,1.18.57,2.47,1.15,3.88,1.73l6.6,2.65c2.04.82,3.82,1.84,5.34,3.06,1.52,1.22,2.7,2.7,3.54,4.42.84,1.72,1.26,3.81,1.26,6.26,0,2.72-.74,5.24-2.21,7.55-1.47,2.31-3.58,4.17-6.32,5.58-2.74,1.4-6.06,2.11-9.96,2.11Z"/>
        <path class="cls-2" d="M325.68,92.92v-50.39h10.06v50.39h-10.06Z"/>
        <path class="cls-2" d="M341.66,92.92l16.12-50.39h11.9l16.12,50.39h-10.61l-7.14-26.25c-.77-2.63-1.51-5.36-2.21-8.19-.7-2.83-1.44-5.59-2.21-8.26h-.27c-.64,2.72-1.33,5.49-2.07,8.3-.75,2.81-1.49,5.53-2.21,8.16l-7.21,26.25h-10.2ZM351.65,80v-7.82h23.94v7.82h-23.94Z"/>
      </g>
    </g>
  </g>
</svg>