<?xml version="1.0" encoding="UTF-8"?>
<svg id="_レイヤー_2" data-name="レイヤー 2" xmlns="http://www.w3.org/2000/svg" viewBox="0 0 395.82 471.82">
  <defs>
    <style>
      .cls-1 {
        fill: none;
        stroke: #fff;
        stroke-miterlimit: 10;
        stroke-width: 4.82px;
      }

      .cls-2 {
        fill: #fff;
      }
    </style>
  </defs>
  <g id="_レイヤー_1-2" data-name="レイヤー 1">
    <g>
      <rect class="cls-1" x="2.41" y="2.41" width="391" height="467"/>
      <g>
        <path class="cls-2" d="M104,93.87c-3.63,0-6.71-.74-9.25-2.21s-4.65-3.68-6.32-6.63l6.87-5.1c1,1.81,2.13,3.14,3.4,3.98,1.27.84,2.63,1.26,4.08,1.26,2.22,0,3.9-.68,5.03-2.04,1.13-1.36,1.7-3.78,1.7-7.28v-33.32h10.06v34.14c0,3.17-.54,6.06-1.63,8.67-1.09,2.61-2.78,4.68-5.07,6.22s-5.25,2.31-8.87,2.31Z"/>
        <path class="cls-2" d="M125.22,92.92l16.12-50.39h11.9l16.12,50.39h-10.61l-7.14-26.25c-.77-2.63-1.51-5.36-2.21-8.19-.7-2.83-1.44-5.59-2.21-8.26h-.27c-.64,2.72-1.33,5.49-2.07,8.3-.75,2.81-1.49,5.53-2.21,8.16l-7.21,26.25h-10.2ZM135.21,80v-7.82h23.94v7.82h-23.94Z"/>
        <path class="cls-2" d="M175.27,92.92v-50.39h16.52c3.72,0,7.06.5,10.03,1.5,2.97,1,5.33,2.64,7.07,4.93,1.74,2.29,2.62,5.43,2.62,9.42s-.87,6.95-2.62,9.42c-1.75,2.47-4.08,4.3-7,5.47-2.92,1.18-6.2,1.77-9.83,1.77h-6.73v17.88h-10.06ZM185.33,67.08h6.05c3.45,0,6.02-.72,7.72-2.18,1.7-1.45,2.55-3.63,2.55-6.53s-.9-4.93-2.69-6.09c-1.79-1.16-4.43-1.73-7.92-1.73h-5.71v16.52Z"/>
        <path class="cls-2" d="M214.16,92.92l16.12-50.39h11.9l16.12,50.39h-10.61l-7.14-26.25c-.77-2.63-1.51-5.36-2.21-8.19-.7-2.83-1.44-5.59-2.21-8.26h-.27c-.64,2.72-1.33,5.49-2.07,8.3-.75,2.81-1.49,5.53-2.21,8.16l-7.21,26.25h-10.2ZM224.16,80v-7.82h23.94v7.82h-23.94Z"/>
        <path class="cls-2" d="M264.21,92.92v-50.39h10.27l14.62,26.86,5.1,10.88h.34c-.27-2.63-.57-5.51-.88-8.64-.32-3.13-.48-6.12-.48-8.98v-20.13h9.52v50.39h-10.27l-14.48-26.93-5.1-10.81h-.34c.23,2.72.5,5.6.82,8.64.32,3.04.48,6.01.48,8.91v20.2h-9.59Z"/>
      </g>
      <g>
        <g>
          <rect class="cls-2" x="22.91" y="129.53" width="350" height="96"/>
          <g>
            <path d="M89.73,164.75c-.74,1.08-1.63,2.2-2.66,3.35-1.03,1.15-2.18,2.29-3.44,3.42-1.26,1.13-2.59,2.2-4,3.22-1.4,1.02-2.86,1.95-4.37,2.79-.17-.34-.41-.72-.72-1.15-.31-.43-.65-.85-1.01-1.26-.36-.41-.7-.77-1.01-1.08,2.09-1.08,4.09-2.38,6.01-3.91,1.92-1.52,3.64-3.14,5.17-4.84,1.52-1.7,2.73-3.31,3.62-4.82h4.46c.98,1.42,2.08,2.78,3.28,4.1,1.2,1.32,2.47,2.54,3.82,3.67,1.34,1.13,2.74,2.15,4.18,3.06,1.44.91,2.89,1.68,4.36,2.3-.55.55-1.08,1.17-1.57,1.85-.49.68-.94,1.36-1.35,2.03-1.42-.79-2.83-1.69-4.23-2.68-1.4-1-2.77-2.06-4.09-3.19-1.32-1.13-2.53-2.28-3.64-3.46-1.1-1.18-2.04-2.32-2.81-3.42ZM74.54,189.56h30.78v3.92h-30.78v-3.92ZM78.46,176.99h4.25v14.58h-4.25v-14.58ZM87.82,170.76h4.57v20.88h-4.57v-20.88ZM89.98,178.47h12.06v3.85h-12.06v-3.85Z"/>
            <path d="M122.92,184.23l3.42,1.55c-1.13,1.25-2.49,2.41-4.09,3.47-1.6,1.07-3.31,2-5.13,2.81-1.82.8-3.66,1.46-5.51,1.96-.19-.36-.45-.76-.77-1.21-.32-.44-.66-.88-1.01-1.31-.35-.43-.68-.79-.99-1.08,1.8-.38,3.59-.88,5.38-1.48,1.79-.6,3.44-1.31,4.95-2.12,1.51-.82,2.76-1.68,3.74-2.59ZM109.92,182.64h32.11v3.56h-32.11v-3.56ZM110.03,166.52h31.9v3.53h-31.9v-3.53ZM111.51,172.96h29.02v3.38h-29.02v-3.38ZM112.59,162.05l3.71-1.26c.53.74,1.06,1.6,1.58,2.57.53.97.91,1.81,1.15,2.5l-3.89,1.44c-.19-.72-.54-1.57-1.04-2.56-.5-.98-1.01-1.88-1.51-2.7ZM113.27,177.93h25.6v3.13h-25.6v-3.13ZM117.16,170.12l4.21-.68c.31.5.62,1.07.92,1.71.3.64.52,1.19.67,1.67l-4.39.76c-.12-.46-.31-1.02-.58-1.69-.26-.67-.54-1.26-.83-1.76ZM120.58,160.58h4.03v7.63h-4.03v-7.63ZM123.71,174.65h4.28v19.8h-4.28v-19.8ZM128.86,184.12c.74.72,1.63,1.4,2.66,2.03,1.03.64,2.17,1.21,3.4,1.73,1.24.52,2.54.97,3.92,1.35,1.38.38,2.78.68,4.19.9-.34.34-.69.73-1.06,1.17-.37.44-.72.91-1.04,1.4-.32.49-.59.94-.81,1.35-1.44-.36-2.85-.82-4.23-1.39-1.38-.56-2.7-1.21-3.94-1.93-1.25-.72-2.42-1.52-3.53-2.41-1.1-.89-2.08-1.84-2.92-2.84l3.35-1.37ZM127.28,160.58h4.07v7.38h-4.07v-7.38ZM130.8,168.6l4.57,1.08c-.5.84-.98,1.65-1.44,2.43-.46.78-.86,1.45-1.22,2l-3.67-1.01c.31-.67.64-1.42.97-2.25s.6-1.58.79-2.25ZM135.56,160.9l4.5,1.08c-.55.98-1.12,1.94-1.69,2.86-.58.92-1.1,1.71-1.58,2.36l-3.53-1.08c.29-.48.58-1.03.86-1.64s.56-1.24.81-1.87c.25-.64.46-1.21.63-1.71Z"/>
            <path d="M161.91,172.92c.86,0,1.64.21,2.32.63.68.42,1.24.97,1.66,1.66s.63,1.46.63,2.32-.21,1.61-.63,2.3c-.42.7-.97,1.25-1.66,1.67-.68.42-1.46.63-2.32.63s-1.61-.21-2.3-.63c-.7-.42-1.25-.98-1.67-1.67-.42-.7-.63-1.46-.63-2.3s.21-1.64.63-2.32.98-1.24,1.67-1.66c.7-.42,1.46-.63,2.3-.63Z"/>
            <path d="M182.83,162.27h30.82v4.14h-26.53v28.04h-4.28v-32.18ZM185.45,188.84h29.09v4.14h-29.09v-4.14ZM193.37,166.26l4.03.97c-.62,1.54-1.43,3-2.43,4.39-1,1.39-2.01,2.56-3.04,3.49-.26-.22-.62-.46-1.06-.72-.44-.26-.89-.52-1.33-.77-.44-.25-.83-.46-1.17-.63,1.08-.82,2.06-1.82,2.93-3.02.88-1.2,1.57-2.44,2.07-3.71ZM198.56,170.58h4.25v5.94c0,1.1-.17,2.2-.5,3.29-.34,1.09-.92,2.14-1.76,3.15-.84,1.01-2.02,1.95-3.55,2.83-1.52.88-3.47,1.65-5.85,2.32-.17-.31-.41-.67-.72-1.06-.31-.4-.64-.79-.97-1.17-.34-.38-.66-.71-.97-.97,2.18-.5,3.95-1.08,5.29-1.73s2.36-1.35,3.04-2.11c.68-.76,1.15-1.53,1.39-2.32.24-.79.36-1.55.36-2.27v-5.9ZM188.8,175.52h24.01v3.71h-24.01v-3.71ZM193.7,169.25h17.53v3.6h-17.53v-3.6ZM202.55,177.89c.84,1.78,2.18,3.21,4.01,4.3,1.84,1.09,4.13,1.83,6.89,2.21-.46.43-.93,1-1.42,1.69-.49.7-.87,1.33-1.13,1.91-3.07-.62-5.57-1.71-7.49-3.26-1.92-1.55-3.43-3.57-4.54-6.07l3.67-.79Z"/>
            <path d="M216.56,180.56c.84-.36,1.83-.82,2.97-1.39,1.14-.56,2.32-1.15,3.55-1.75l.97,3.24c-1.01.65-2.05,1.3-3.13,1.94s-2.12,1.26-3.13,1.84l-1.22-3.89ZM216.88,168.1l3.1-1.3c.5,1.15.97,2.39,1.39,3.71.42,1.32.68,2.44.77,3.35l-3.28,1.51c-.07-.65-.2-1.39-.4-2.21-.19-.83-.42-1.69-.68-2.57-.26-.89-.56-1.72-.9-2.48ZM222.03,163.53h4v11.63c0,1.44-.07,3.01-.22,4.72-.14,1.7-.4,3.43-.77,5.18-.37,1.75-.91,3.44-1.62,5.06-.71,1.62-1.64,3.05-2.79,4.3-.19-.29-.48-.62-.86-.99s-.77-.73-1.15-1.08c-.38-.35-.72-.61-1.01-.77,1.03-1.15,1.84-2.41,2.43-3.76.59-1.36,1.03-2.77,1.31-4.23s.47-2.91.56-4.34c.08-1.43.13-2.79.13-4.09v-11.63ZM224.12,163.53h26.5v3.6h-26.5v-3.6ZM229.8,186.53l3.89,1.08c-.65,1.2-1.47,2.37-2.47,3.51s-2,2.09-3.01,2.86c-.24-.24-.55-.52-.94-.85-.38-.32-.78-.64-1.19-.94-.41-.3-.77-.55-1.08-.74.96-.62,1.87-1.37,2.74-2.25.86-.88,1.55-1.77,2.05-2.68ZM235.56,166.95l3.96.54c-.58,1.82-1.36,3.58-2.36,5.27-1,1.69-2.25,3.27-3.76,4.73-1.51,1.46-3.36,2.77-5.54,3.92-.26-.46-.65-.97-1.15-1.55-.5-.58-.98-1.01-1.44-1.3,2.02-.94,3.71-2.03,5.09-3.28,1.38-1.25,2.5-2.59,3.35-4.01.85-1.43,1.47-2.87,1.85-4.34ZM226.89,174.72l2.2-1.91c.62.41,1.31.88,2.05,1.42s1.33,1.03,1.76,1.46l-2.3,2.09c-.38-.41-.94-.91-1.67-1.49-.73-.59-1.41-1.11-2.03-1.57ZM227.25,169.43h23.04v3.24h-23.04v-3.24ZM230.02,175.88h16.67v10.22h-16.67v-10.22ZM236.18,184.77h4.18v5.94c0,.89-.11,1.58-.32,2.07-.22.49-.65.88-1.3,1.17-.65.26-1.38.42-2.2.47-.82.05-1.78.07-2.88.07-.12-.53-.31-1.12-.58-1.78-.26-.66-.52-1.22-.76-1.67.67.02,1.33.04,1.98.04h1.3c.24,0,.4-.04.47-.13.07-.08.11-.21.11-.38v-5.8ZM233.37,160.61h4.54v5.11h-4.54v-5.11ZM233.62,178.43v1.33h9.32v-1.33h-9.32ZM233.62,182.14v1.4h9.32v-1.4h-9.32ZM242.41,170.8c.55,1.03,1.27,2.03,2.16,2.99s1.9,1.82,3.02,2.57,2.32,1.36,3.56,1.82c-.43.36-.89.84-1.37,1.44-.48.6-.86,1.13-1.15,1.58-1.32-.6-2.57-1.38-3.76-2.34-1.19-.96-2.26-2.05-3.22-3.26-.96-1.21-1.78-2.48-2.45-3.8l3.2-1.01ZM241.94,188.26l3.28-1.66c.6.53,1.22,1.13,1.87,1.8.65.67,1.27,1.33,1.85,1.98s1.05,1.24,1.39,1.76l-3.49,1.84c-.29-.5-.7-1.1-1.24-1.78-.54-.68-1.13-1.37-1.78-2.07-.65-.7-1.27-1.32-1.87-1.87ZM247.7,172.56l2.48,1.84c-.58.55-1.19,1.08-1.85,1.58-.66.5-1.25.94-1.78,1.3l-2.2-1.69c.53-.38,1.12-.87,1.76-1.46.65-.59,1.17-1.11,1.58-1.57Z"/>
            <path d="M257.31,170.84l2.23.76c-.22,1.39-.49,2.85-.83,4.37-.34,1.52-.72,3.02-1.15,4.48-.43,1.46-.91,2.83-1.42,4.1-.52,1.27-1.06,2.36-1.64,3.28-.19-.53-.47-1.15-.85-1.85-.37-.71-.7-1.3-.99-1.78.5-.79,1-1.71,1.48-2.75s.92-2.17,1.33-3.38c.41-1.21.77-2.44,1.08-3.67.31-1.24.56-2.42.76-3.55ZM253.49,168.1h11.02v3.92h-11.02v-3.92ZM257.38,160.61h3.85v33.8h-3.85v-33.8ZM261.02,173.21c.19.24.48.67.86,1.28.38.61.8,1.28,1.24,2.02.44.73.85,1.4,1.21,2.02.36.61.61,1.05.76,1.31l-2.05,2.99c-.17-.53-.41-1.16-.72-1.89-.31-.73-.65-1.49-1.01-2.27-.36-.78-.71-1.51-1.04-2.2-.34-.68-.6-1.24-.79-1.67l1.55-1.58ZM266.81,180.74h3.82c-.12,1.82-.35,3.58-.7,5.26-.35,1.68-.93,3.23-1.75,4.66s-1.97,2.67-3.46,3.73c-.26-.46-.63-.97-1.1-1.53-.47-.56-.92-1-1.35-1.31,1.22-.82,2.15-1.8,2.77-2.95s1.06-2.4,1.3-3.74c.24-1.34.4-2.71.47-4.1ZM263.64,167.42l1.58-2.38c.74.53,1.52,1.15,2.32,1.87.8.72,1.41,1.37,1.82,1.94l-1.69,2.66c-.38-.6-.97-1.29-1.76-2.07-.79-.78-1.55-1.46-2.27-2.03ZM263.9,174.08c1.08-.07,2.32-.16,3.73-.27,1.4-.11,2.86-.22,4.37-.34l.07,2.95c-1.32.17-2.62.32-3.91.47-1.28.14-2.51.28-3.69.4l-.58-3.2ZM264.44,178.97h22.1v3.35h-22.1v-3.35ZM270.63,164.72l2.99,1.4c-.67,1.06-1.39,2.17-2.16,3.33-.77,1.16-1.54,2.28-2.3,3.35-.77,1.07-1.5,2.01-2.2,2.83l-2.23-1.22c.67-.86,1.37-1.86,2.09-2.99.72-1.13,1.42-2.28,2.11-3.46.68-1.18,1.25-2.26,1.71-3.24ZM267.6,160.83l3.2,1.26c-.58,1.01-1.16,2.05-1.75,3.11s-1.12,1.97-1.6,2.72l-2.3-1.01c.29-.55.59-1.18.9-1.89.31-.71.61-1.43.88-2.18.28-.74.5-1.42.67-2.02ZM267.39,185.81l2.16-2.59c.6.34,1.22.73,1.85,1.19.63.46,1.24.91,1.8,1.37.56.46,1.03.86,1.39,1.22l-2.3,2.92c-.34-.41-.78-.85-1.33-1.33-.55-.48-1.14-.97-1.76-1.46-.62-.49-1.22-.93-1.8-1.31ZM269.76,171.99l2.41-.79c.41.86.77,1.81,1.08,2.83.31,1.02.5,1.88.58,2.57l-2.59,1.01c-.07-.74-.25-1.64-.52-2.7-.28-1.06-.59-2.03-.95-2.92ZM281.25,182.25l3.6,1.37c-1.25,2.5-2.94,4.66-5.08,6.48-2.14,1.82-4.57,3.26-7.31,4.32-.22-.41-.56-.89-1.03-1.44-.47-.55-.88-1-1.24-1.33,2.59-.91,4.84-2.17,6.75-3.78,1.91-1.61,3.34-3.48,4.3-5.62ZM273,160.65h3.78c-.07,3.29-.03,6.43.13,9.43.16,3,.4,5.77.74,8.3.33,2.53.77,4.73,1.3,6.59.53,1.86,1.15,3.31,1.85,4.34.71,1.03,1.51,1.55,2.39,1.55.43,0,.74-.23.94-.68.19-.46.34-1.4.43-2.84.41.38.88.75,1.4,1.1.53.35,1,.63,1.4.85-.19,1.37-.46,2.42-.81,3.17-.35.74-.82,1.27-1.4,1.57-.59.3-1.35.45-2.29.45-1.56,0-2.91-.59-4.05-1.78-1.14-1.19-2.09-2.84-2.84-4.97-.76-2.12-1.34-4.61-1.76-7.45-.42-2.84-.73-5.93-.92-9.25-.19-3.32-.29-6.77-.29-10.35ZM276.21,167.42l1.62-2.38c.74.53,1.52,1.15,2.32,1.87.8.72,1.4,1.37,1.78,1.94l-1.66,2.66c-.38-.6-.97-1.29-1.76-2.07-.79-.78-1.56-1.46-2.3-2.03ZM276.86,173.5c1.1-.05,2.34-.13,3.71-.23,1.37-.11,2.81-.22,4.32-.34l.07,2.74c-1.32.17-2.6.34-3.85.5s-2.45.31-3.6.43l-.65-3.1ZM283.23,164.72l2.95,1.4c-.65,1.01-1.34,2.06-2.07,3.17-.73,1.1-1.46,2.16-2.2,3.17-.73,1.01-1.42,1.9-2.07,2.66l-2.27-1.26c.65-.79,1.32-1.72,2.02-2.79.7-1.07,1.37-2.16,2.02-3.28.65-1.12,1.19-2.14,1.62-3.08ZM280.21,160.83l3.24,1.22c-.6,1.01-1.19,2.04-1.78,3.1-.59,1.06-1.12,1.94-1.6,2.66l-2.3-1.04c.29-.55.58-1.17.88-1.85s.59-1.39.86-2.11c.28-.72.51-1.38.7-1.98ZM279.09,177.64l2.12-1.87c.58.36,1.18.78,1.8,1.26.62.48,1.1.92,1.44,1.33l-2.23,2.05c-.31-.41-.77-.88-1.39-1.4-.61-.53-1.19-.98-1.75-1.37ZM282.94,171.59l2.41-.94c.46.89.86,1.83,1.22,2.83.36,1,.59,1.85.68,2.57l-2.59,1.08c-.1-.74-.31-1.64-.63-2.68s-.69-2-1.1-2.86Z"/>
            <path d="M290.75,162.02h4.21v32.44h-4.21v-32.44ZM292.91,166.73h9.04v2.7h-9.04v-2.7ZM293.31,162.02h11.38v12.2h-11.38v-2.95h7.34v-6.26h-7.34v-2.99ZM303.68,179.19h3.85v3.89c0,.84-.11,1.7-.34,2.59-.23.89-.65,1.76-1.26,2.61-.61.85-1.49,1.66-2.65,2.43-1.15.77-2.66,1.45-4.54,2.05-.26-.38-.64-.85-1.13-1.4-.49-.55-.97-1.01-1.42-1.37,1.63-.43,2.95-.94,3.94-1.53,1-.59,1.75-1.2,2.27-1.84.52-.64.86-1.27,1.03-1.89.17-.62.25-1.21.25-1.76v-3.78ZM296.87,182.64h18.07v3.1h-18.07v-3.1ZM297.38,177.71h17.17v3.02h-17.17v-3.02ZM299,175.37l3.31-.94c.38.53.74,1.12,1.08,1.76.34.65.56,1.24.68,1.76l-3.53,1.01c-.12-.5-.32-1.09-.59-1.76-.28-.67-.59-1.28-.95-1.84ZM307.17,184.01c.65,1.42,1.64,2.62,2.99,3.62,1.34,1,3,1.69,4.97,2.07-.38.36-.81.85-1.28,1.46-.47.61-.82,1.16-1.06,1.64-2.21-.62-4.03-1.63-5.47-3.01-1.44-1.38-2.53-3.08-3.28-5.09l3.13-.68ZM319.23,162.02v2.99h-8.1v6.37h8.1v2.95h-12.2v-12.31h12.2ZM309,174.4l3.96,1.08c-.5.7-.98,1.37-1.42,2.03-.44.66-.85,1.24-1.21,1.75l-2.84-.97c.29-.58.58-1.23.86-1.96.29-.73.5-1.37.65-1.93ZM309.51,166.73h9.07v2.7h-9.07v-2.7ZM317,162.02h4.25v27.86c0,.98-.1,1.78-.31,2.38-.2.6-.59,1.07-1.17,1.4-.58.34-1.27.55-2.09.65-.82.1-1.79.14-2.92.14-.05-.58-.19-1.25-.41-2.03-.23-.78-.47-1.45-.74-2,.58.02,1.15.04,1.71.05.56.01.93,0,1.1-.02.24,0,.4-.05.47-.14.07-.1.11-.25.11-.47v-27.83Z"/>
          </g>
        </g>
        <g>
          <rect class="cls-2" x="22.91" y="234.78" width="350" height="96"/>
          <g>
            <path d="M156.98,272.92c-.17.34-.32.74-.45,1.21-.13.47-.25.89-.34,1.28-.22.89-.47,1.88-.77,2.97-.3,1.09-.67,2.23-1.12,3.4-.44,1.18-.96,2.34-1.55,3.49-.59,1.15-1.25,2.23-2,3.24-1.08,1.44-2.33,2.78-3.76,4.03-1.43,1.25-3.04,2.38-4.82,3.38-1.79,1.01-3.75,1.86-5.89,2.56l-3.92-4.32c2.4-.58,4.47-1.28,6.21-2.12,1.74-.84,3.25-1.8,4.52-2.88,1.27-1.08,2.4-2.23,3.38-3.46.79-1.01,1.48-2.1,2.05-3.28.58-1.18,1.04-2.36,1.4-3.55s.61-2.3.76-3.33h-16.74c-.84,0-1.64.01-2.41.04-.77.02-1.39.06-1.87.11v-5.08c.36.05.8.1,1.31.14.52.05,1.04.08,1.58.11.54.02,1,.04,1.39.04h16.67c.36,0,.8-.01,1.31-.04.52-.02,1.01-.11,1.49-.25l3.56,2.3ZM153.23,266.11c.31.46.64.97.99,1.55.35.58.68,1.15.99,1.71.31.56.58,1.06.79,1.49l-3.02,1.26c-.24-.48-.51-1-.81-1.55-.3-.55-.61-1.11-.94-1.67-.32-.56-.64-1.09-.95-1.57l2.95-1.22ZM158.27,265.21c.31.43.65.94,1.01,1.51.36.58.71,1.15,1.04,1.73.34.58.61,1.08.83,1.51l-2.99,1.3c-.41-.74-.87-1.57-1.39-2.48-.52-.91-1.01-1.7-1.49-2.38l2.99-1.19Z"/>
            <path d="M194.45,279.29c-.12.24-.25.5-.38.79-.13.29-.23.53-.31.72-.55,1.73-1.24,3.45-2.07,5.17-.83,1.72-1.91,3.32-3.26,4.81-1.8,2.02-3.82,3.65-6.05,4.91-2.23,1.26-4.5,2.21-6.8,2.86l-3.56-4.07c2.71-.58,5.12-1.42,7.24-2.52,2.11-1.1,3.85-2.36,5.22-3.78.96-.98,1.73-2.02,2.32-3.11.59-1.09,1.05-2.13,1.39-3.11h-17.39c-.43,0-1.04.01-1.84.04-.79.02-1.57.07-2.34.14v-4.68c.77.05,1.52.1,2.25.14.73.05,1.37.07,1.93.07h17.82c.58,0,1.1-.04,1.57-.11.47-.07.82-.16,1.06-.25l3.2,1.98ZM169.94,268.85c.5.07,1.1.12,1.8.14.7.02,1.34.04,1.94.04h13.86c.55,0,1.21-.01,1.98-.04.77-.02,1.4-.07,1.91-.14v4.64c-.48-.05-1.1-.08-1.85-.09-.76-.01-1.46-.02-2.11-.02h-13.79c-.58,0-1.21.01-1.89.04-.68.02-1.3.05-1.85.07v-4.64Z"/>
            <path d="M202.09,293.08c1.87-.26,3.64-.64,5.29-1.12,1.66-.48,3.19-1.03,4.61-1.66,1.42-.62,2.71-1.27,3.89-1.94,2.04-1.22,3.91-2.62,5.62-4.18,1.7-1.56,3.19-3.19,4.46-4.88,1.27-1.69,2.28-3.34,3.02-4.95l2.81,5.08c-.91,1.61-2.03,3.22-3.37,4.82-1.33,1.61-2.84,3.14-4.52,4.59-1.68,1.45-3.49,2.75-5.44,3.91-1.22.74-2.54,1.45-3.96,2.11-1.42.66-2.91,1.25-4.48,1.76-1.57.52-3.21.92-4.91,1.21l-3.02-4.75ZM206.59,269.1c.62.43,1.36.96,2.2,1.58.84.62,1.71,1.3,2.61,2.03.9.73,1.75,1.45,2.54,2.14.79.7,1.44,1.32,1.94,1.87l-3.67,3.74c-.46-.5-1.06-1.1-1.8-1.8-.74-.7-1.55-1.42-2.41-2.16-.86-.74-1.72-1.45-2.56-2.12s-1.58-1.24-2.23-1.69l3.38-3.6Z"/>
            <path d="M244.1,293.55v-20.7c0-.65-.03-1.38-.09-2.2-.06-.82-.15-1.54-.27-2.16h5.62c-.07.62-.14,1.32-.22,2.09s-.11,1.52-.11,2.27v20.7c0,.31.02.77.05,1.39.04.61.08,1.24.14,1.89s.11,1.22.16,1.73h-5.65c.12-.7.21-1.53.27-2.5.06-.97.09-1.81.09-2.5ZM247.99,277.81c1.2.31,2.54.71,4.01,1.21,1.48.49,2.97,1.02,4.48,1.58,1.51.56,2.94,1.12,4.28,1.66s2.45,1.03,3.31,1.46l-2.02,5c-1.03-.55-2.16-1.09-3.38-1.62-1.22-.53-2.47-1.05-3.73-1.57s-2.49-.99-3.69-1.42c-1.2-.43-2.29-.8-3.28-1.12v-5.18ZM258.46,269.68c.34.48.71,1.04,1.12,1.69.41.65.8,1.3,1.17,1.94s.7,1.25.99,1.8l-3.13,1.4c-.34-.77-.67-1.45-.99-2.05-.32-.6-.65-1.18-.99-1.75-.34-.56-.73-1.16-1.19-1.78l3.02-1.26ZM263.18,267.7c.36.48.75,1.03,1.17,1.66.42.62.83,1.25,1.22,1.89.4.64.73,1.23.99,1.78l-3.02,1.48c-.38-.77-.75-1.45-1.1-2.03-.35-.59-.7-1.15-1.04-1.69s-.75-1.1-1.21-1.67l2.99-1.4Z"/>
          </g>
        </g>
        <g>
          <rect class="cls-2" x="22.91" y="340.03" width="350" height="96"/>
          <g>
            <path d="M164.5,372.66h30.92v32.22h-4.54v-28.08h-22.07v28.08h-4.32v-32.22ZM167.06,399.3h25.56v4.14h-25.56v-4.14ZM170.19,381.3h19.58v3.64h-19.58v-3.64ZM171.88,387.38l2.99-1.62c.55.58,1.08,1.21,1.6,1.91.52.7.99,1.39,1.42,2.07.43.68.76,1.31.97,1.89l-3.2,1.8c-.19-.55-.49-1.18-.88-1.89-.4-.71-.85-1.42-1.35-2.14s-1.02-1.39-1.55-2.02ZM181.78,377.74h4v16.56c0,.98-.12,1.75-.36,2.29-.24.54-.68.95-1.33,1.24-.62.26-1.4.43-2.34.49-.94.06-2.06.09-3.38.09-.07-.5-.22-1.1-.43-1.8-.22-.7-.44-1.3-.68-1.8.79.02,1.57.04,2.34.04h1.51c.26,0,.44-.04.54-.13.1-.08.14-.25.14-.49v-16.49Z"/>
            <path d="M205.87,371.26l4.1,1.26c-.7,2.02-1.53,4.05-2.5,6.1-.97,2.05-2.03,4-3.17,5.83-1.14,1.84-2.32,3.45-3.55,4.84-.14-.36-.35-.82-.63-1.39-.28-.56-.57-1.13-.88-1.71-.31-.58-.6-1.04-.86-1.4,1.03-1.1,2.01-2.38,2.93-3.83s1.78-3.01,2.56-4.66c.78-1.66,1.45-3.34,2-5.04ZM202.95,381.23l4.1-4.1v27.76h-4.1v-23.65ZM216.95,379.5l3.13.86c-.67,2.5-1.5,4.94-2.48,7.34s-2.09,4.62-3.31,6.66c-1.22,2.04-2.54,3.79-3.96,5.26-.24-.34-.54-.71-.9-1.13-.36-.42-.74-.82-1.13-1.21-.4-.38-.75-.7-1.06-.94,1.39-1.22,2.71-2.74,3.94-4.55,1.24-1.81,2.35-3.78,3.35-5.9,1-2.12,1.81-4.25,2.43-6.39ZM209.14,377.56h23.33v4.1h-23.33v-4.1ZM213.53,395.02h13.82v3.85h-13.82v-3.85ZM218.29,371.29h4.21v33.37h-4.21v-33.37ZM224.04,379.86c.62,2.02,1.43,4.05,2.41,6.1.98,2.05,2.08,3.96,3.28,5.72,1.2,1.76,2.45,3.26,3.74,4.48-.5.36-1.07.86-1.71,1.51-.64.65-1.15,1.26-1.53,1.84-1.3-1.44-2.53-3.17-3.71-5.18-1.18-2.02-2.23-4.19-3.17-6.53-.94-2.34-1.74-4.7-2.41-7.07l3.1-.86Z"/>
          </g>
        </g>
      </g>
    </g>
  </g>
</svg>